<?xml version="1.0" encoding="iso-8859-1"?>
<!-- Generator: Adobe Illustrator 16.0.0, SVG Export Plug-In . SVG Version: 6.00 Build 0)  -->
<!DOCTYPE svg PUBLIC "-//W3C//DTD SVG 1.1//EN" "http://www.w3.org/Graphics/SVG/1.1/DTD/svg11.dtd">
<svg version="1.1" id="Capa_1" xmlns="http://www.w3.org/2000/svg" xmlns:xlink="http://www.w3.org/1999/xlink" x="0px" y="0px"
	 width="612.005px" height="612.006px" viewBox="0 0 612.005 612.006" style="enable-background:new 0 0 612.005 612.006; fill:#01a1ff"
	 xml:space="preserve">
<g>
	<g id="_x37__22_">
		<g>
			<path d="M605.731,267.776h-34.959C552.174,138.147,440.991,38.412,306.221,38.412c-104.15,0-194.175,59.635-238.404,146.487
				l71.791,27.6c32.742-58.22,95.033-97.633,166.614-97.633c92.471,0,169.595,65.675,187.294,152.909h-46.064
				c-5.905,5.734-11.563,9.29-3.096,19.229l71.312,72.517c5.906,5.734,15.482,5.734,21.389,0l71.791-72.517
				C614.734,281.271,611.637,273.529,605.731,267.776z M306.221,497.141c-85.572,0-157.993-56.252-182.363-133.797h41.821
				c5.906-5.734,9.002-13.494,3.096-19.229l-71.771-72.517c-5.906-5.734-15.482-5.734-21.388,0L4.302,344.115
				c-8.468,9.939-2.81,13.494,3.096,19.229h35.055c20.738,113.383,130.756,210.25,263.787,210.25
				c97.346,0,182.286-52.16,229.115-129.877l-72.346-28.555C428.452,464.686,371.168,497.141,306.221,497.141z"/>
		</g>
	</g>
</g>
<g>
</g>
<g>
</g>
<g>
</g>
<g>
</g>
<g>
</g>
<g>
</g>
<g>
</g>
<g>
</g>
<g>
</g>
<g>
</g>
<g>
</g>
<g>
</g>
<g>
</g>
<g>
</g>
<g>
</g>
</svg>
